inDegrees=no
num_controls=7
num_derivatives=13
num_iterations=157
num_multipliers=7
num_parameters=0
num_slacks=7
num_states=26
objective=5.754266
objective_accelerations=0.674549
objective_balance=0.109256
objective_effort=0.476630
objective_height=4.411827
objective_ligament=0.082005
solver_duration=1872.540775
status=Solve_Succeeded
success=true
DataType=double
version=3
OpenSimVersion=4.4-2022-07-23-0e9fedc
endheader
time	/jointset/ground_pelvis/pelvis_tilt/value	/jointset/ground_pelvis/pelvis_tx/value	/jointset/ground_pelvis/pelvis_ty/value	/jointset/hip_l/hip_flexion_l/value	/jointset/hip_l/hip_adduction_l/value	/jointset/hip_l/hip_rotation_l/value	/jointset/back/lumbar_extension/value	/jointset/patellofemoral_l/patellar_flexion_l/value	/jointset/knee_l/knee_flexion_l/value	/jointset/knee_l/knee_adduction_l/value	/jointset/knee_l/knee_rotation_l/value	/jointset/ankle_l/ankle_angle_l/value	/jointset/subtalar_l/subtalar_angle_l/value	/jointset/ground_pelvis/pelvis_tilt/speed	/jointset/ground_pelvis/pelvis_tx/speed	/jointset/ground_pelvis/pelvis_ty/speed	/jointset/hip_l/hip_flexion_l/speed	/jointset/hip_l/hip_adduction_l/speed	/jointset/hip_l/hip_rotation_l/speed	/jointset/back/lumbar_extension/speed	/jointset/patellofemoral_l/patellar_flexion_l/speed	/jointset/knee_l/knee_flexion_l/speed	/jointset/knee_l/knee_adduction_l/speed	/jointset/knee_l/knee_rotation_l/speed	/jointset/ankle_l/ankle_angle_l/speed	/jointset/subtalar_l/subtalar_angle_l/speed	/forceset/tau_hip_flexion_l	/forceset/tau_hip_adduction_l	/forceset/tau_hip_rotation_l	/forceset/tau_knee_flexion_l	/forceset/tau_ankle_angle_l	/forceset/tau_subtalar_angle_l	/forceset/tau_lumbar_extension	lambda_cid13_p0	lambda_cid13_p1	lambda_cid13_p2	lambda_cid13_p3	lambda_cid13_p4	lambda_cid13_p5	lambda_cid14_p0	/jointset/ground_pelvis/pelvis_tilt/accel	/jointset/ground_pelvis/pelvis_tx/accel	/jointset/ground_pelvis/pelvis_ty/accel	/jointset/hip_l/hip_flexion_l/accel	/jointset/hip_l/hip_adduction_l/accel	/jointset/hip_l/hip_rotation_l/accel	/jointset/back/lumbar_extension/accel	/jointset/patellofemoral_l/patellar_flexion_l/accel	/jointset/knee_l/knee_flexion_l/accel	/jointset/knee_l/knee_adduction_l/accel	/jointset/knee_l/knee_rotation_l/accel	/jointset/ankle_l/ankle_angle_l/accel	/jointset/subtalar_l/subtalar_angle_l/accel	gamma_cid13_p0	gamma_cid13_p1	gamma_cid13_p2	gamma_cid13_p3	gamma_cid13_p4	gamma_cid13_p5	gamma_cid14_p0
0.5	-0.4867371826590471	-0.08275256924166574	0.7553397684954755	1.319682306302641	-0.3102977294723244	-0.04765971597698298	-0.3341637479076721	0.6886647234030354	0.6886647234028394	-0.17300914174002	0.1745025356903959	0.02060754554912393	-0.05290100616354299	-0.8532462984949682	-0.2877136007950322	-0.5236154797186044	2.526530279539158	-0.03619778531699179	0.6190484621976161	-0.6177179378089548	1.778993848478909	1.778993848478913	-0.007000143289856213	0.0001442156421767819	0.1977654266361741	-0.01787213483859941	-0.2660939521073796	0.0217306113983535	-0.01952236442890181	-0.1874805050878858	0.139803566681316	0.04181810358911031	0.2326381688161662	6.141607557424541	-21.78536128419525	5.981658235320319	-5.645826425982222	-606.766535370825	-55.7079201419606	-28.32507362463315	0.6787711029663287	0.755329655915127	-0.3123950256535645	-1.630005522509887	0.6056026352608653	-0.2841193797656584	1.871562695554594	-1.098274405632067	-1.098274405632067	0.030462333981661	-0.01914667173086205	-0.07821641875655724	0.5908758260747181	-2.643713518235245e-07	-8.786936317361355e-07	1.318294564712569e-06	4.930805229230094e-08	-3.794196066605424e-07	1.289771133749002e-07	-3.173141882592518e-07
0.51	-0.4952338620839981	-0.08559164531305359	0.7500891069140608	1.344861610971147	-0.3106310158904537	-0.04148357425512739	-0.3402475829284183	0.7063968486369085	0.70639684863685	-0.1730807473236163	0.1745035651404192	0.0225802673160782	-0.05305191285194358	-0.8459789497991826	-0.2800814327355668	-0.5264106518421687	2.509008988478634	-0.0304691110215686	0.6160835482805939	-0.5989913964763737	1.767197271803249	1.767197271803366	-0.007299757465253528	7.704299745192592e-05	0.1967311986555763	-0.01232054873358361	-0.2750594504449486	0.0223659744387632	-0.01958914094322849	-0.1882747428085161	0.1394852103206825	0.04243485817594089	0.2394060810055602	5.773876680528141	-21.87492273277023	5.865825940647108	-5.541141173140518	-611.6357326949002	-55.28048082595764	-27.29110268333465	0.7672705624925512	0.7702096916402305	-0.2472330479814801	-1.861491788879465	0.5549494997370215	-0.3174409768405881	1.881850331679234	-1.255369176841187	-1.255369176824223	-0.05704837071149638	0.001450568049366904	-0.1231851900312284	0.5355316565630039	-3.115040898258338e-07	-7.176162537717296e-07	1.544952155548456e-06	1.064610641997289e-07	-3.939784749857635e-07	1.832023778193008e-07	-3.346965949665767e-07
0.52	-0.5036545572600755	-0.08835378984171079	0.7448136626629556	1.369856042550836	-0.3109073256310191	-0.03534003438826661	-0.3461424224399256	0.7240040041283656	0.7240040041284399	-0.1731547240644523	0.1745043134897661	0.02454121496276255	-0.0531476573485244	-0.8380494487190817	-0.2723272922488991	-0.528572013656707	2.489555661775884	-0.02480244980398811	0.6125280911967685	-0.579918835961026	1.753999899995253	1.753999899995482	-0.007474374737086435	8.799550843058926e-05	0.1954106025821842	-0.006839696474644059	-0.2840249487824963	0.02300133747919803	-0.01965591745764194	-0.189068980529137	0.1391668539600522	0.04305161276279774	0.2461739931949696	5.403126315634697	-21.9680180257342	5.755198314162014	-5.458087339000318	-616.5732496653399	-54.93321019930786	-26.25512168631655	0.8112015798293674	0.7797241413556568	-0.1856329638483474	-2.016412650955047	0.5932000196923018	-0.4022280131262947	1.940766532107903	-1.378433432099519	-1.378433432099541	0.05546171469452939	-0.00352164059015805	-0.1354900373153465	0.5767290568594787	-2.880171664493917e-07	-6.500931798782059e-07	1.450439797715113e-06	9.730588285267298e-08	-3.570560478853555e-07	2.034916508607589e-07	-3.129131623560934e-07
0.53	-0.5119928140554597	-0.09103785398623795	0.7395197817195009	1.394646600328308	-0.3111272141364026	-0.02923475553656878	-0.3518448864321877	0.7414723485482853	0.7414723485483125	-0.1732296929645166	0.1745053490980992	0.02648762689999001	-0.05318886779426819	-0.8294996611640582	-0.2644713301219144	-0.5300954734290921	2.468243695756733	-0.01919686667108882	0.6084570304931941	-0.5605334284481253	1.739436467565164	1.73943646756535	-0.007524698934230429	0.0001177880612003177	0.1938246741312317	-0.001425993456690519	-0.2927198962563156	0.0233757474476576	-0.01971653092873792	-0.1901171429636863	0.1391498437678018	0.04343858028890556	0.2526839880154805	5.124672295508702	-21.9808762909971	5.635660444103311	-5.392078226467337	-621.462619889242	-54.48074519053564	-25.2191524768892	0.8921680422586763	0.7906817281612216	-0.1194647755964136	-2.235462618586769	0.5408908053088741	-0.4204127095623476	1.943507967345341	-1.530115317778401	-1.530115317784801	-0.03612204837488728	0.005719257499784476	-0.1772086897864946	0.5200848142790695	-2.601168227199501e-07	-5.967448115282004e-07	1.331740395402551e-06	8.268795048956146e-08	-3.186848193027529e-07	2.159337405797395e-07	-2.889793448749904e-07
0.54	-0.520242512835516	-0.0936429286135366	0.7342139137199897	1.419214663637347	-0.3112917161414153	-0.02317236081401838	-0.357352280328029	0.7587880952100394	0.7587880952100208	-0.1733053336188367	0.1745065805428184	0.02841676666454716	-0.05317666243182927	-0.8203378456522386	-0.2565293888031903	-0.5309694248680252	2.445056768089923	-0.0137251497293813	0.6039512653660439	-0.5409048166766655	1.723480348362475	1.723480348362617	-0.007608725589610898	0.0001271627855355551	0.1919561680482269	0.00384346516189776	-0.3014148437301238	0.02375015741612818	-0.01977714439982229	-0.1911653053982433	0.1391328335755494	0.04382554781502546	0.2591939828360011	4.841845739523179	-21.99660013695645	5.520727869892223	-5.340924894636648	-626.4383142044834	-54.10147871679357	-24.18380497769882	0.9336071711885728	0.7969199797035877	-0.05573129715794355	-2.391404980487031	0.566426781453939	-0.489168897841424	1.989407383819664	-1.65697078661985	-1.656970786619841	0.04872122304722021	-0.007605206277067394	-0.1920055637256948	0.547880176986445	-2.273335458339984e-07	-5.590790961199597e-07	1.186280858772554e-06	6.202612338528203e-08	-2.787106614207007e-07	2.196938402398086e-07	-2.626663781753294e-07
0.55	-0.5283976713489401	-0.09616824215485086	0.7289025421946098	1.443541852151795	-0.3114019952962103	-0.017157432863877	-0.3626622361280097	0.7759376113935631	0.7759376113935882	-0.1733813943607281	0.1745079250566671	0.03032594469544441	-0.05311228693142704	-0.8105976194909139	-0.2485268645341454	-0.5311957561367711	2.420083988612136	-0.00835555018317429	0.598960003503044	-0.5210608069146915	1.706202254067075	1.706202254067038	-0.007602392935413333	0.0001433436741349452	0.1898354478433721	0.009004953359552287	-0.3099048246954366	0.02394345683386287	-0.01981272142206373	-0.1922036972810501	0.1390375227491555	0.04406918685571828	0.2654756704580321	4.537265700511862	-21.9478077785168	5.397268290020143	-5.213364652619093	-631.2678700788978	-53.63319451131391	-23.14987684061409	1.008636083992711	0.8028970407389027	0.0102331876943484	-2.59479196535838	0.5184181354885747	-0.5154756599046704	1.98572823306518	-1.796274229628635	-1.7962742296554	-0.02330985997596424	0.006220679951519759	-0.2287015012887836	0.4962368749271488	-2.009380834486589e-07	-5.136766883946057e-07	1.072631926746054e-06	4.760645829175432e-08	-2.443803651950901e-07	2.245916144381703e-07	-2.400713705679721e-07
0.5600000000000001	-0.5364525464516802	-0.09861333477542748	0.7235921708024278	1.467610397364677	-0.3114593401366886	-0.01119469169822902	-0.367772985738236	0.7929077375384092	0.7929077375384704	-0.1734573716053957	0.1745094295680989	0.03221259627380834	-0.05299710580229379	-0.8002811635140561	-0.2404852046556619	-0.530769398228464	2.393328107777001	-0.003138286865588159	0.5935139084650278	-0.5010635787255684	1.687602340626526	1.68760234062631	-0.007592026144488537	0.0001591623036543562	0.1874508775415808	0.01400459090809855	-0.3183948056607283	0.0241367562516221	-0.01984829844442438	-0.1932420891638458	0.1389422119227641	0.04431282589643683	0.2717573580800796	4.226826295545644	-21.90104474545801	5.277622668001171	-5.091447954314116	-636.2020076440391	-53.22984302259093	-22.11849953059872	1.048853134295181	0.8047471015913978	0.07480653825268199	-2.748025251956493	0.5359595357297537	-0.5801355328446707	2.020051069249479	-1.921334615649836	-1.921334615649836	0.04952805039265733	-0.007677658093089651	-0.2447755831128656	0.5155100471648209	-1.822079984640537e-07	-4.589902498887162e-07	9.971557202437492e-07	4.067738761112844e-08	-2.168227029572091e-07	2.30854598082483e-07	-2.219379138713789e-07
0.5700000000000001	-0.544401511633464	-0.100977888555881	0.71828931367406	1.491402771232089	-0.3114651619339486	-0.005288671454576729	-0.3726830645313841	0.8096854557330193	0.8096854557327819	-0.1735329179381584	0.1745110276376548	0.03407419159067982	-0.05283261069957659	-0.7894219951470994	-0.2324254854117672	-0.5296928223704328	2.364862416788999	0.001944457128382503	0.5876180031211076	-0.4809413421503654	1.667729835120588	1.667729835120443	-0.00751739249138536	0.0001615780874283435	0.1848277524280081	0.01886322871277854	-0.3266152937109888	0.02415770592990072	-0.01986240509131904	-0.1942883793537248	0.1388451371460205	0.04440822005191516	0.2777674840301187	3.922801496022181	-21.7927779324095	5.150176686128842	-4.928893146640655	-640.9409769315366	-52.74322235491768	-21.09094420820447	1.117904828019994	0.8066015910855721	0.1404236239480498	-2.938508342552107	0.4899375253237503	-0.6053259717989089	2.009935614657026	-2.051885658288919	-2.051885658278192	-0.01363577188420915	0.004155279207499907	-0.2771420214077152	0.466316609946695	-1.639050647919541e-07	-4.06640101712851e-07	9.212486481775318e-07	3.42110485329448e-08	-1.907569194083157e-07	2.338935863207619e-07	-2.038173399890869e-07
